<svg width="96" height="32" viewBox="0 0 96 32" fill="none" xmlns="http://www.w3.org/2000/svg">
<path d="M37.267 20.6873C37.5859 20.6873 37.8918 20.814 38.1173 21.0395C38.3428 21.265 38.4694 21.5708 38.4694 21.8897C38.4694 22.2086 38.3428 22.5145 38.1173 22.74C37.8918 22.9655 37.5859 23.0921 37.267 23.0921H30.8798C30.6815 23.0994 30.4838 23.0657 30.2991 22.9931C30.1144 22.9205 29.9466 22.8106 29.8063 22.6703C29.6659 22.53 29.556 22.3622 29.4834 22.1775C29.4109 21.9928 29.3772 21.7951 29.3844 21.5967V10.2794C29.3792 10.0969 29.4106 9.9153 29.4768 9.74521C29.543 9.57513 29.6426 9.42003 29.7698 9.28913C29.897 9.15824 30.0491 9.05418 30.2173 8.98313C30.3854 8.91208 30.566 8.87549 30.7485 8.87549C30.931 8.87549 31.1117 8.91208 31.2798 8.98313C31.4479 9.05418 31.6001 9.15824 31.7273 9.28913C31.8544 9.42003 31.9541 9.57513 32.0203 9.74521C32.0865 9.9153 32.1179 10.0969 32.1126 10.2794V20.6862L37.267 20.6873Z" fill="#022641"/>
<path d="M48.4368 17.4126C48.4368 18.464 47.8508 18.8268 46.7803 18.8268L40.7784 18.7863C40.8855 19.4586 41.2429 20.0655 41.7787 20.4854C42.3146 20.9053 42.9894 21.107 43.6678 21.0502C44.2531 21.0486 44.8291 20.9027 45.3446 20.6254C45.6481 20.4486 45.9858 20.3384 46.3351 20.302C46.456 20.2963 46.5768 20.316 46.6897 20.3597C46.8026 20.4034 46.9051 20.4702 46.9907 20.5558C47.0763 20.6414 47.143 20.7439 47.1868 20.8568C47.2305 20.9697 47.2502 21.0904 47.2445 21.2113C47.2295 21.4338 47.1633 21.6498 47.0511 21.8426C46.9389 22.0353 46.7837 22.1995 46.5977 22.3225C45.7714 22.8459 44.822 23.143 43.8447 23.1841C42.8674 23.2251 41.8965 23.0087 41.0291 22.5565C40.1618 22.1042 39.4285 21.432 38.9028 20.6071C38.377 19.7823 38.0771 18.8338 38.0333 17.8566C38.0227 17.1519 38.1523 16.4522 38.4147 15.7981C38.677 15.144 39.0667 14.5486 39.5613 14.0465C40.0558 13.5444 40.6452 13.1457 41.2953 12.8735C41.9453 12.6013 42.643 12.4611 43.3477 12.461C44.6752 12.4568 45.9516 12.9725 46.9034 13.8978C47.8553 14.8231 48.4069 16.0844 48.4402 17.4115M40.7773 16.9675H45.8292C45.7843 16.3484 45.4992 15.7715 45.0347 15.3599C44.5702 14.9482 43.9631 14.7345 43.3432 14.7644C42.7136 14.7283 42.0945 14.9377 41.616 15.3485C41.1375 15.7593 40.8369 16.3396 40.7773 16.9675" fill="#022641"/>
<path d="M59.8398 13.8359V21.8988C59.8282 22.2502 59.6808 22.5834 59.4286 22.8284C59.1764 23.0734 58.8391 23.2112 58.4875 23.2127C58.1367 23.2142 57.7996 23.077 57.5496 22.8308C57.2996 22.5846 57.1572 22.2496 57.1533 21.8988V21.5145C56.8831 22.0665 56.4538 22.525 55.9208 22.8311C55.3879 23.1372 54.7755 23.2767 54.1626 23.2319C52.8214 23.106 51.5754 22.4842 50.6685 21.4882C49.7615 20.4922 49.2589 19.1936 49.2589 17.8465C49.2589 16.4994 49.7615 15.2008 50.6685 14.2047C51.5754 13.2087 52.8214 12.5869 54.1626 12.4611C54.7731 12.4313 55.3794 12.5773 55.9095 12.8817C56.4396 13.1861 56.8713 13.6361 57.1533 14.1784V13.8404C57.1607 13.4907 57.3042 13.1577 57.5534 12.9123C57.8026 12.6668 58.1378 12.5284 58.4875 12.5264C58.838 12.5315 59.1733 12.6705 59.4247 12.9147C59.6761 13.159 59.8246 13.4902 59.8398 13.8404M57.2728 17.842C57.2728 15.5589 55.7774 14.7295 54.646 14.7295C53.892 14.8302 53.2002 15.2011 52.6991 15.7735C52.1981 16.3459 51.9219 17.0807 51.9219 17.8414C51.9219 18.6021 52.1981 19.3369 52.6991 19.9093C53.2002 20.4817 53.892 20.8526 54.646 20.9533C55.7729 20.9533 57.2728 20.125 57.2728 17.8408" fill="#022641"/>
<path d="M71.2496 17.8375C71.3012 18.5169 71.2139 19.1998 70.9929 19.8444C70.7719 20.489 70.4219 21.0818 69.9642 21.5867C69.5066 22.0915 68.9509 22.4979 68.331 22.781C67.7112 23.064 67.0402 23.2178 66.3589 23.233C65.7459 23.2779 65.1336 23.1383 64.6006 22.8322C64.0676 22.5261 63.6384 22.0677 63.3681 21.5156V21.8999C63.3727 21.9756 63.3659 22.0516 63.3479 22.1253V25.7629C63.3378 26.1099 63.1928 26.4393 62.9438 26.6812C62.6948 26.923 62.3613 27.0584 62.0142 27.0584C61.667 27.0584 61.3335 26.923 61.0845 26.6812C60.8355 26.4393 60.6906 26.1099 60.6805 25.7629V13.8404C60.6957 13.4902 60.8442 13.159 61.0956 12.9147C61.347 12.6705 61.6823 12.5315 62.0327 12.5264C62.3823 12.5287 62.7172 12.6672 62.9662 12.9126C63.2151 13.158 63.3585 13.4909 63.3659 13.8404V14.1784C63.6479 13.6361 64.0796 13.1861 64.6097 12.8817C65.1398 12.5773 65.7461 12.4313 66.3566 12.4611C67.0341 12.4825 67.7004 12.6399 68.3159 12.9237C68.9314 13.2076 69.4836 13.6122 69.9397 14.1135C70.3959 14.6148 70.7467 15.2027 70.9713 15.8422C71.1959 16.4817 71.2898 17.1598 71.2474 17.8363M68.6003 17.8363C68.6384 17.4502 68.5969 17.0604 68.4783 16.691C68.3597 16.3216 68.1666 15.9805 67.9109 15.6887C67.6552 15.3969 67.3422 15.1608 66.9915 14.9948C66.6409 14.8289 66.2599 14.7366 65.8721 14.7239C64.7452 14.7239 63.2453 15.5521 63.2453 17.8363C63.2453 20.1205 64.7407 20.9488 65.8721 20.9488C66.2604 20.9377 66.6422 20.8466 66.9937 20.6811C67.3452 20.5157 67.6588 20.2796 67.9149 19.9874C68.1709 19.6953 68.3639 19.3535 68.4819 18.9834C68.5998 18.6132 68.6401 18.2227 68.6003 17.8363Z" fill="#022641"/>
<path d="M72.0711 9.7756C72.0651 9.50883 72.1386 9.24629 72.2822 9.02143C72.4259 8.79656 72.6332 8.61952 72.8778 8.51287C73.1224 8.40621 73.3932 8.37477 73.6557 8.42252C73.9182 8.47027 74.1607 8.59505 74.352 8.781C74.5434 8.96696 74.6751 9.20566 74.7304 9.46671C74.7857 9.72776 74.762 9.99935 74.6624 10.2469C74.5628 10.4945 74.3918 10.7068 74.1712 10.8569C73.9505 11.0069 73.6902 11.0879 73.4234 11.0895C73.0719 11.0877 72.7347 10.9499 72.4826 10.7049C72.2305 10.46 72.083 10.1269 72.0711 9.7756M74.7385 13.8572V21.8581C74.7436 22.0352 74.7132 22.2115 74.649 22.3766C74.5848 22.5417 74.4882 22.6922 74.3648 22.8193C74.2414 22.9464 74.0937 23.0474 73.9306 23.1164C73.7674 23.1853 73.592 23.2209 73.4149 23.2209C73.2378 23.2209 73.0625 23.1853 72.8993 23.1164C72.7362 23.0474 72.5885 22.9464 72.4651 22.8193C72.3417 22.6922 72.2451 22.5417 72.1809 22.3766C72.1167 22.2115 72.0862 22.0352 72.0914 21.8581V13.8572C72.0862 13.6802 72.1167 13.5038 72.1809 13.3387C72.2451 13.1737 72.3417 13.0231 72.4651 12.896C72.5885 12.769 72.7362 12.668 72.8993 12.599C73.0625 12.53 73.2378 12.4945 73.4149 12.4945C73.592 12.4945 73.7674 12.53 73.9306 12.599C74.0937 12.668 74.2414 12.769 74.3648 12.896C74.4882 13.0231 74.5848 13.1737 74.649 13.3387C74.7132 13.5038 74.7436 13.6802 74.7385 13.8572" fill="#022641"/>
<path d="M83.7243 10.0371C83.7267 10.166 83.7024 10.2939 83.6529 10.413C83.6035 10.532 83.5299 10.6396 83.4369 10.7288C83.3439 10.818 83.2333 10.887 83.1123 10.9315C82.9913 10.9759 82.8624 10.9948 82.7338 10.987C82.444 10.9655 82.1585 10.9045 81.8852 10.8056C81.6698 10.7046 81.4357 10.6497 81.1978 10.6445C81.0228 10.6346 80.8478 10.6628 80.6847 10.7271C80.5217 10.7915 80.3745 10.8904 80.2535 11.0172C80.1324 11.1439 80.0403 11.2954 79.9835 11.4612C79.9267 11.627 79.9065 11.8032 79.9244 11.9776V12.5839H81.5809C81.7205 12.5793 81.8596 12.6028 81.9898 12.653C82.1201 12.7032 82.2389 12.7792 82.3392 12.8762C82.4396 12.9733 82.5194 13.0896 82.5739 13.2181C82.6284 13.3467 82.6564 13.4849 82.6564 13.6245C82.6564 13.7642 82.6284 13.9023 82.5739 14.0309C82.5194 14.1594 82.4396 14.2757 82.3392 14.3728C82.2389 14.4699 82.1201 14.5458 81.9898 14.5961C81.8596 14.6463 81.7205 14.6698 81.5809 14.6652H79.9244V21.8999C79.9144 22.2442 79.7705 22.5711 79.5234 22.8111C79.2763 23.0511 78.9454 23.1853 78.6009 23.1853C78.2564 23.1853 77.9255 23.0511 77.6783 22.8111C77.4312 22.5711 77.2874 22.2442 77.2774 21.8999V14.6652H76.6711C76.5315 14.6698 76.3925 14.6463 76.2622 14.5961C76.132 14.5458 76.0131 14.4699 75.9128 14.3728C75.8124 14.2757 75.7326 14.1594 75.6782 14.0309C75.6237 13.9023 75.5956 13.7642 75.5956 13.6245C75.5956 13.4849 75.6237 13.3467 75.6782 13.2181C75.7326 13.0896 75.8124 12.9733 75.9128 12.8762C76.0131 12.7792 76.132 12.7032 76.2622 12.653C76.3925 12.6028 76.5315 12.5793 76.6711 12.5839H77.2774V11.8367C77.2519 11.3702 77.3267 10.9037 77.4968 10.4686C77.667 10.0334 77.9284 9.63985 78.2635 9.31433C78.5987 8.98881 78.9996 8.73894 79.4395 8.58155C79.8794 8.42416 80.348 8.36289 80.8136 8.40193C81.5859 8.38199 82.3487 8.57706 83.0166 8.96537C83.2211 9.06226 83.395 9.21325 83.5198 9.40196C83.6445 9.59066 83.7153 9.80991 83.7243 10.0359" fill="#022641"/>
<path d="M93.943 13.7153C93.9374 13.9274 93.8818 14.1351 93.7806 14.3216L88.5463 26.1032C88.4545 26.3697 88.2831 26.6017 88.0555 26.7679C87.8278 26.9342 87.5547 27.0266 87.2729 27.0329C87.1169 27.0339 86.9623 27.0035 86.8183 26.9436C86.6742 26.8837 86.5437 26.7955 86.4344 26.6842C86.3251 26.5729 86.2393 26.4407 86.182 26.2957C86.1247 26.1506 86.0971 25.9955 86.1009 25.8395C86.11 25.6304 86.1582 25.4247 86.2429 25.2332L87.3946 22.6054L83.6363 14.3204C83.5514 14.1291 83.5032 13.9234 83.4944 13.7142C83.4953 13.5561 83.5274 13.3998 83.5889 13.2543C83.6504 13.1087 83.74 12.9767 83.8527 12.8659C83.9654 12.7551 84.0989 12.6677 84.2455 12.6086C84.3921 12.5496 84.5489 12.5201 84.7069 12.5219C84.9885 12.5286 85.2613 12.6212 85.4887 12.7874C85.7161 12.9536 85.8873 13.1854 85.9792 13.4516L88.6837 19.716L91.4536 13.4516C91.5408 13.1863 91.708 12.9546 91.9321 12.7881C92.1563 12.6217 92.4265 12.5287 92.7056 12.5219C92.8652 12.518 93.024 12.5459 93.1728 12.6039C93.3215 12.6619 93.4572 12.749 93.572 12.8599C93.6869 12.9708 93.7784 13.1035 93.8415 13.2501C93.9046 13.3968 93.9379 13.5545 93.9395 13.7142" fill="#022641"/>
<path d="M23.8739 14.3193L23.2316 14.1998C23.2058 14.1933 23.1834 14.1775 23.1686 14.1554C23.1539 14.1333 23.1479 14.1065 23.1519 14.0802C23.1558 14.0539 23.1694 14.03 23.1899 14.0132C23.2105 13.9964 23.2366 13.9878 23.2631 13.9891C23.4672 14.0121 23.6738 13.9872 23.8666 13.9165C24.0594 13.8458 24.2331 13.7311 24.3739 13.5817C24.5147 13.4322 24.6188 13.252 24.6779 13.0554C24.7371 12.8587 24.7496 12.651 24.7146 12.4486C24.1809 9.37817 22.4897 6.6294 19.9895 4.76887C19.8496 4.66231 19.6736 4.61447 19.499 4.63551C19.3244 4.65655 19.1648 4.74482 19.0542 4.88157L18.9618 4.99427C18.9101 5.05253 18.8399 5.09113 18.763 5.10359C18.6861 5.11605 18.6073 5.10159 18.5398 5.06263C18.4724 5.02368 18.4204 4.96261 18.3928 4.88979C18.3652 4.81696 18.3636 4.73684 18.3882 4.66295L18.4411 4.52546C18.5039 4.36117 18.5002 4.17889 18.4307 4.01731C18.3613 3.85574 18.2316 3.72757 18.0693 3.66C15.2073 2.42483 11.9805 2.33489 9.05413 3.40871C8.86117 3.47946 8.68735 3.59419 8.54645 3.74381C8.40555 3.89343 8.30145 4.07381 8.24239 4.27066C8.18333 4.46752 8.17095 4.67542 8.20623 4.87789C8.2415 5.08036 8.32347 5.27182 8.44562 5.43711C8.45931 5.45944 8.46435 5.48604 8.45977 5.51184C8.45519 5.53763 8.4413 5.56083 8.42075 5.57707C8.4002 5.59332 8.37441 5.60147 8.34826 5.59998C8.32211 5.59848 8.29741 5.58744 8.27884 5.56896L7.85401 5.07312C7.6477 4.83143 7.36067 4.67285 7.04625 4.62684C6.73184 4.58083 6.41142 4.65053 6.14451 4.82297C2.16095 7.33932 -0.0928519 11.395 0.00293396 15.152C0.00723192 15.2911 0.0430868 15.4273 0.107772 15.5504C0.172457 15.6735 0.264293 15.7803 0.376324 15.8627C0.488355 15.9451 0.617653 16.0009 0.754442 16.026C0.891232 16.051 1.03192 16.0447 1.16588 16.0074C1.22616 15.9917 1.29017 15.9997 1.34471 16.0298C1.39926 16.0598 1.4402 16.1097 1.45911 16.169C1.47803 16.2284 1.47347 16.2927 1.44639 16.3488C1.4193 16.4049 1.37176 16.4484 1.31352 16.4705L1.04194 16.5686C0.809411 16.6523 0.619542 16.8249 0.513935 17.0483C0.408329 17.2718 0.395593 17.528 0.478497 17.7608C0.676014 18.3135 0.934142 18.8426 1.24816 19.3385L1.28534 19.3971C1.84464 20.2763 2.69496 20.9312 3.68788 21.2474C3.75375 21.2688 3.81147 21.3099 3.85322 21.3652C3.89498 21.4204 3.91877 21.4872 3.92135 21.5564C3.92393 21.6256 3.90519 21.6939 3.86767 21.7521C3.83015 21.8104 3.77564 21.8556 3.71154 21.8819C2.67487 22.2513 1.56816 22.3819 0.473974 22.2639C6.46454 25.0383 9.06203 19.1323 11.0442 15.7527C11.0676 15.7132 11.0829 15.6695 11.0893 15.6241C11.0957 15.5787 11.0931 15.5324 11.0815 15.488C11.07 15.4436 11.0498 15.4019 11.0222 15.3654C10.9945 15.3288 10.9599 15.298 10.9203 15.2749L9.86888 14.6573C9.81473 14.6257 9.7701 14.5801 9.73973 14.5253C9.70936 14.4704 9.69437 14.4084 9.69633 14.3457C9.69829 14.283 9.71715 14.2221 9.75089 14.1692C9.78464 14.1164 9.83201 14.0736 9.88804 14.0454L14.7686 11.5855L15.0785 17.043C15.082 17.1054 15.0686 17.1677 15.0397 17.2232C15.0109 17.2786 14.9676 17.3253 14.9144 17.3583C14.8613 17.3913 14.8002 17.4093 14.7377 17.4105C14.6751 17.4118 14.6134 17.3962 14.559 17.3653L13.4986 16.7635C13.4587 16.7409 13.4148 16.7263 13.3693 16.7206C13.3238 16.715 13.2776 16.7184 13.2334 16.7307C13.1893 16.7429 13.1479 16.7638 13.1118 16.792C13.0757 16.8203 13.0455 16.8554 13.0231 16.8953C11.0882 20.3019 7.2759 25.5048 12.6692 29.3058C12.02 28.4174 11.5797 27.394 11.3812 26.3117C11.3714 26.2427 11.3832 26.1723 11.4149 26.1103C11.4467 26.0482 11.4968 25.9975 11.5585 25.9651C11.6202 25.9326 11.6904 25.92 11.7595 25.929C11.8286 25.938 11.8933 25.9682 11.9446 26.0153C12.7148 26.7174 13.7071 27.1267 14.7483 27.1715H14.8182C15.4058 27.1952 15.9943 27.1536 16.5728 27.0475C16.8156 27.0028 17.0308 26.8638 17.1715 26.6609C17.3121 26.458 17.3667 26.2076 17.3233 25.9646L17.2726 25.6795C17.2603 25.617 17.2729 25.5521 17.3079 25.4989C17.3429 25.4456 17.3973 25.4082 17.4595 25.3946C17.5218 25.3811 17.5869 25.3924 17.6408 25.4263C17.6948 25.4602 17.7333 25.5138 17.7481 25.5758C17.7827 25.7105 17.8475 25.8356 17.9375 25.9416C18.0275 26.0476 18.1405 26.1317 18.2678 26.1876C18.3952 26.2435 18.5336 26.2697 18.6725 26.2643C18.8115 26.2588 18.9474 26.2219 19.07 26.1562C22.3717 24.3599 24.7574 20.3808 24.9445 15.6761C24.9605 15.3586 24.8608 15.0462 24.6639 14.7967C24.467 14.5472 24.1863 14.3775 23.8739 14.3193Z" fill="#23CC67"/>
</svg>
